<svg width="147" height="46" viewBox="0 0 147 46" fill="none" xmlns="http://www.w3.org/2000/svg">
<g clip-path="url(#clip0_0_214)">
<path d="M32.6017 15.7755C32.1946 15.51 27.3832 9.8169 18.5 9.8169C9.6154 9.8169 4.80187 15.5123 4.39835 15.7755L0 10.9634C0.423724 10.6905 6.86575 3.30029 18.5 3.30029C30.1486 3.30029 36.5676 10.6848 37 10.9634L32.6017 15.7755Z" fill="#76E2F8"/>
<path d="M25.2675 23.7993C18.0684 16.9836 12.2408 23.3177 11.7321 23.7993L7.33032 18.9835C7.724 18.7238 11.4333 14.1846 18.4998 14.1846C25.5692 14.1846 29.2861 18.7306 29.6693 18.9835L25.2675 23.7993Z" fill="#76E2F8"/>
<path d="M18.5 33.7C16.1045 33.7 14.1556 31.7511 14.1556 29.3556C14.1556 26.9601 16.1045 25.0112 18.5 25.0112C20.8956 25.0112 22.8445 26.9601 22.8445 29.3556C22.8445 31.7511 20.8956 33.7 18.5 33.7Z" fill="#76E2F8"/>
<path d="M32.6017 15.775L37 10.9629C36.5676 10.6844 30.1486 3.2998 18.5 3.2998V9.81641C27.3832 9.81641 32.1947 15.5095 32.6017 15.775Z" fill="#3AAAFF"/>
<path d="M25.2677 23.7988L29.6695 18.983C29.2863 18.7301 25.5694 14.1841 18.5 14.1841V20.6599C20.488 20.6695 22.7971 21.4597 25.2677 23.7988Z" fill="#3AAAFF"/>
<path d="M22.8444 29.3556C22.8444 26.9601 20.8955 25.0112 18.5 25.0112V33.7C20.8955 33.7 22.8444 31.7511 22.8444 29.3556Z" fill="#3AAAFF"/>
</g>
<path d="M53.4045 15.8125H58.842V31H61.467V15.8125H66.913V13.5455H53.4045V15.8125ZM68.3342 35.9091H70.8825V28.9631H71.0359C71.4961 29.7983 72.4336 31.2557 74.82 31.2557C77.9904 31.2557 80.2915 28.7159 80.2915 24.4801C80.2915 20.2358 77.9563 17.7386 74.7944 17.7386C72.3654 17.7386 71.4876 19.2216 71.0359 20.0312H70.8228V17.9091H68.3342V35.9091ZM70.8313 24.4545C70.8313 21.7188 72.0245 19.9034 74.2489 19.9034C76.5586 19.9034 77.7177 21.8551 77.7177 24.4545C77.7177 27.0795 76.5245 29.0824 74.2489 29.0824C72.0586 29.0824 70.8313 27.2074 70.8313 24.4545Z" fill="#8C30F5"/>
<path d="M83.1467 13.5455V27.9489C83.1467 30.0199 84.212 31.1278 86.4194 31.0938C87.1012 31.0852 87.6467 30.9744 88.0046 30.8636L87.5444 28.8267C87.3654 28.8778 87.1864 28.9375 86.7433 28.946C85.9251 28.9716 85.695 28.5455 85.695 27.4205V13.5455H83.1467ZM89.6857 31H92.234V17.9091H89.6857V31ZM90.9727 15.8892C91.8505 15.8892 92.5835 15.2074 92.5835 14.3722C92.5835 13.5369 91.8505 12.8466 90.9727 12.8466C90.0863 12.8466 89.3619 13.5369 89.3619 14.3722C89.3619 15.2074 90.0863 15.8892 90.9727 15.8892ZM98.2106 23.2273C98.2106 21.1392 99.489 19.946 101.262 19.946C102.992 19.946 104.04 21.0795 104.04 22.9801V31H106.588V22.6733C106.588 19.4347 104.807 17.7386 102.131 17.7386C100.162 17.7386 98.8754 18.6506 98.2702 20.0398H98.1083V17.9091H95.6623V31H98.2106V23.2273ZM110.006 31H112.554V26.3551L113.824 25.0852L118.273 31H121.401L115.742 23.5256L121.043 17.9091H117.992L112.776 23.4489H112.554V13.5455H110.006V31Z" fill="white"/>
<rect x="145" y="1" width="2" height="45" fill="#C4C4C4"/>
<defs>
<clipPath id="clip0_0_214">
<rect width="37" height="37" fill="white"/>
</clipPath>
</defs>
</svg>
