<svg width="141" height="48" viewBox="0 0 141 48" fill="none" xmlns="http://www.w3.org/2000/svg">
<path d="M0.311201 6.28437H11.5428V37.6553H16.9649V6.28437H28.2141V1.60162H0.311201V6.28437ZM31.1496 47.7954H36.4133V33.4478H36.7301C37.6808 35.1731 39.6173 38.1834 44.5465 38.1834C51.0953 38.1834 55.8484 32.9373 55.8484 24.188C55.8484 15.421 51.0249 10.2629 44.4936 10.2629C39.4764 10.2629 37.6632 13.3261 36.7301 14.9985H36.29V10.615H31.1496V47.7954ZM36.3076 24.1352C36.3076 18.4842 38.7722 14.7344 43.367 14.7344C48.1377 14.7344 50.5319 18.7658 50.5319 24.1352C50.5319 29.5573 48.0673 33.6943 43.367 33.6943C38.8427 33.6943 36.3076 29.8214 36.3076 24.1352ZM61.7459 1.60162V31.3529C61.7459 35.6308 63.9464 37.9193 68.5059 37.8489C69.9143 37.8313 71.041 37.6025 71.7803 37.3736L70.8297 33.1662C70.46 33.2718 70.0903 33.395 69.1749 33.4126C67.4849 33.4654 67.0096 32.5852 67.0096 30.2615V1.60162H61.7459ZM75.2528 37.6553H80.5165V10.615H75.2528V37.6553ZM77.911 6.44281C79.7243 6.44281 81.2383 5.03447 81.2383 3.30924C81.2383 1.58402 79.7243 0.158068 77.911 0.158068C76.0802 0.158068 74.5838 1.58402 74.5838 3.30924C74.5838 5.03447 76.0802 6.44281 77.911 6.44281ZM92.8615 21.6001C92.8615 17.2871 95.5022 14.8225 99.1639 14.8225C102.738 14.8225 104.903 17.1638 104.903 21.0896V37.6553H110.167V20.4559C110.167 13.7662 106.487 10.2629 100.96 10.2629C96.8929 10.2629 94.2347 12.1466 92.9847 15.0161H92.6503V10.615H87.5978V37.6553H92.8615V21.6001ZM117.226 37.6553H122.49V28.0609L125.113 25.4379L134.302 37.6553H140.763L129.074 22.2163L140.023 10.615H133.721L122.947 22.0578H122.49V1.60162H117.226V37.6553Z" fill="white"/>
</svg>
