<svg width="77" height="64" viewBox="0 0 77 64" fill="none" xmlns="http://www.w3.org/2000/svg">
<path d="M67.3411 26.5865C66.5003 26.0382 56.5619 14.2787 38.2131 14.2787C19.8613 14.2787 9.91862 26.0429 9.08511 26.5865L0 16.6468C0.875234 16.0831 14.1817 0.818115 38.2131 0.818115C62.2741 0.818115 75.5331 16.0714 76.4262 16.6468L67.3411 26.5865Z" fill="white"/>
<path d="M52.1914 43.1598C37.3211 29.0814 25.2838 42.165 24.2332 43.1598L15.1409 33.2123C15.954 32.6758 23.6158 23.2998 38.2122 23.2998C52.8147 23.2998 60.4921 32.69 61.2836 33.2123L52.1914 43.1598Z" fill="white"/>
<path d="M38.2144 63.6114C33.2663 63.6114 29.2407 59.5858 29.2407 54.6378C29.2407 49.6897 33.2663 45.6641 38.2144 45.6641C43.1625 45.6641 47.1881 49.6897 47.1881 54.6378C47.1881 59.5858 43.1625 63.6114 38.2144 63.6114Z" fill="white"/>
<path d="M67.342 26.5846L76.4271 16.6449C75.5339 16.0695 62.275 0.816162 38.214 0.816162V14.2767C56.5628 14.2767 66.5013 26.0363 67.342 26.5846Z" fill="white"/>
<path d="M52.1926 43.1598L61.2847 33.2123C60.4933 32.69 52.8158 23.2998 38.2134 23.2998V36.6761C42.3197 36.6959 47.0893 38.3282 52.1926 43.1598Z" fill="white"/>
<path d="M47.1871 54.6378C47.1871 49.6897 43.1615 45.6641 38.2134 45.6641V63.6114C43.1615 63.6114 47.1871 59.5858 47.1871 54.6378Z" fill="white"/>
</svg>
